<svg width="280" height="47" viewBox="0 0 280 47" fill="none" xmlns="http://www.w3.org/2000/svg">
<path d="M0.08 23.28V19.44L20.72 7.488V11.472L3.68 21.12V21.504L20.72 31.152V35.232L0.08 23.28ZM29.3413 0.48H33.1813V15.264H33.3733C34.9733 12.192 37.5173 10.656 41.0053 10.656C44.0453 10.656 46.4133 11.792 48.1093 14.064C49.8373 16.336 50.7013 19.52 50.7013 23.616C50.7013 27.712 49.8373 30.896 48.1093 33.168C46.4133 35.44 44.0453 36.576 41.0053 36.576C37.5173 36.576 34.9733 35.04 33.3733 31.968H33.1813V36H29.3413V0.48ZM39.5173 33.168C41.7573 33.168 43.4853 32.496 44.7013 31.152C45.9493 29.776 46.5733 27.968 46.5733 25.728V21.504C46.5733 19.264 45.9493 17.472 44.7013 16.128C43.4853 14.752 41.7573 14.064 39.5173 14.064C38.6533 14.064 37.8373 14.176 37.0693 14.4C36.3013 14.624 35.6293 14.96 35.0533 15.408C34.4773 15.824 34.0133 16.352 33.6613 16.992C33.3413 17.6 33.1813 18.32 33.1813 19.152V28.08C33.1813 28.912 33.3413 29.648 33.6613 30.288C34.0133 30.896 34.4773 31.424 35.0533 31.872C35.6293 32.288 36.3013 32.608 37.0693 32.832C37.8373 33.056 38.6533 33.168 39.5173 33.168ZM67.9625 36.576C66.2345 36.576 64.6665 36.272 63.2585 35.664C61.8825 35.056 60.6985 34.192 59.7065 33.072C58.7465 31.92 58.0105 30.56 57.4985 28.992C56.9865 27.392 56.7305 25.6 56.7305 23.616C56.7305 21.664 56.9865 19.888 57.4985 18.288C58.0105 16.688 58.7465 15.328 59.7065 14.208C60.6985 13.056 61.8825 12.176 63.2585 11.568C64.6665 10.96 66.2345 10.656 67.9625 10.656C69.6905 10.656 71.2425 10.96 72.6185 11.568C74.0265 12.176 75.2105 13.056 76.1705 14.208C77.1625 15.328 77.9145 16.688 78.4265 18.288C78.9385 19.888 79.1945 21.664 79.1945 23.616C79.1945 25.6 78.9385 27.392 78.4265 28.992C77.9145 30.56 77.1625 31.92 76.1705 33.072C75.2105 34.192 74.0265 35.056 72.6185 35.664C71.2425 36.272 69.6905 36.576 67.9625 36.576ZM67.9625 33.264C70.1065 33.264 71.8345 32.624 73.1465 31.344C74.4585 30.064 75.1145 28.08 75.1145 25.392V21.84C75.1145 19.152 74.4585 17.168 73.1465 15.888C71.8345 14.608 70.1065 13.968 67.9625 13.968C65.8185 13.968 64.0905 14.608 62.7785 15.888C61.4665 17.168 60.8105 19.152 60.8105 21.84V25.392C60.8105 28.08 61.4665 30.064 62.7785 31.344C64.0905 32.624 65.8185 33.264 67.9625 33.264ZM109.272 38.832C109.272 41.328 108.232 43.168 106.152 44.352C104.072 45.568 100.952 46.176 96.7918 46.176C92.7918 46.176 89.9118 45.648 88.1518 44.592C86.4238 43.536 85.5598 42.016 85.5598 40.032C85.5598 38.688 85.9118 37.648 86.6158 36.912C87.3198 36.176 88.3118 35.632 89.5918 35.28V34.704C88.8878 34.352 88.3438 33.904 87.9598 33.36C87.5758 32.816 87.3838 32.128 87.3838 31.296C87.3838 30.016 87.7998 29.056 88.6318 28.416C89.4958 27.776 90.5678 27.296 91.8478 26.976V26.784C90.3118 26.112 89.1118 25.12 88.2478 23.808C87.4158 22.496 86.9998 20.96 86.9998 19.2C86.9998 17.952 87.2238 16.8 87.6718 15.744C88.1198 14.688 88.7598 13.792 89.5918 13.056C90.4558 12.288 91.4798 11.696 92.6638 11.28C93.8478 10.864 95.1598 10.656 96.5998 10.656C98.4558 10.656 100.088 10.992 101.496 11.664V11.232C101.496 10.272 101.72 9.472 102.168 8.832C102.616 8.192 103.384 7.872 104.472 7.872H109.032V11.232H103.464V12.912C104.36 13.68 105.048 14.592 105.528 15.648C106.008 16.704 106.248 17.888 106.248 19.2C106.248 20.448 106.008 21.6 105.528 22.656C105.08 23.712 104.44 24.624 103.608 25.392C102.776 26.128 101.752 26.704 100.536 27.12C99.3518 27.536 98.0398 27.744 96.5998 27.744C96.1838 27.744 95.7838 27.728 95.3998 27.696C95.0158 27.664 94.6318 27.616 94.2478 27.552C93.8638 27.616 93.4638 27.728 93.0478 27.888C92.6318 28.016 92.2478 28.208 91.8958 28.464C91.5438 28.688 91.2558 28.96 91.0318 29.28C90.8078 29.6 90.6958 29.968 90.6958 30.384C90.6958 31.12 91.0638 31.616 91.7998 31.872C92.5358 32.096 93.4958 32.208 94.6797 32.208H100.152C103.352 32.208 105.672 32.816 107.112 34.032C108.552 35.216 109.272 36.816 109.272 38.832ZM105.672 39.024C105.672 38.032 105.272 37.232 104.472 36.624C103.672 36.048 102.28 35.76 100.296 35.76H91.7038C90.0398 36.432 89.2078 37.552 89.2078 39.12C89.2078 40.208 89.6398 41.136 90.5038 41.904C91.3678 42.704 92.8078 43.104 94.8238 43.104H98.5678C100.808 43.104 102.552 42.752 103.8 42.048C105.048 41.376 105.672 40.368 105.672 39.024ZM96.5998 24.768C98.5198 24.768 99.9278 24.32 100.824 23.424C101.752 22.528 102.216 21.344 102.216 19.872V18.48C102.216 17.008 101.752 15.84 100.824 14.976C99.9278 14.08 98.5198 13.632 96.5998 13.632C94.6798 13.632 93.2718 14.08 92.3758 14.976C91.4798 15.84 91.0318 17.008 91.0318 18.48V19.872C91.0318 21.344 91.4798 22.528 92.3758 23.424C93.2718 24.32 94.6798 24.768 96.5998 24.768ZM134.885 36C133.381 36 132.309 35.616 131.669 34.848C131.029 34.08 130.629 33.12 130.469 31.968H130.229C129.685 33.408 128.805 34.544 127.589 35.376C126.405 36.176 124.805 36.576 122.789 36.576C120.197 36.576 118.133 35.904 116.597 34.56C115.061 33.216 114.293 31.376 114.293 29.04C114.293 26.736 115.125 24.96 116.789 23.712C118.485 22.464 121.205 21.84 124.949 21.84H130.229V19.392C130.229 17.568 129.717 16.208 128.693 15.312C127.669 14.384 126.213 13.92 124.325 13.92C122.661 13.92 121.301 14.256 120.245 14.928C119.189 15.568 118.341 16.448 117.701 17.568L115.109 15.648C115.429 15.008 115.861 14.384 116.405 13.776C116.949 13.168 117.621 12.64 118.421 12.192C119.221 11.712 120.133 11.344 121.157 11.088C122.181 10.8 123.317 10.656 124.565 10.656C127.477 10.656 129.781 11.392 131.477 12.864C133.205 14.336 134.069 16.384 134.069 19.008V32.64H137.525V36H134.885ZM123.461 33.36C124.453 33.36 125.349 33.248 126.149 33.024C126.981 32.768 127.701 32.448 128.309 32.064C128.917 31.648 129.381 31.168 129.701 30.624C130.053 30.048 130.229 29.44 130.229 28.8V24.72H124.949C122.645 24.72 120.965 25.04 119.909 25.68C118.853 26.32 118.325 27.248 118.325 28.464V29.472C118.325 30.752 118.773 31.728 119.669 32.4C120.597 33.04 121.861 33.36 123.461 33.36ZM160.306 31.968H160.114C158.514 35.04 155.97 36.576 152.482 36.576C149.442 36.576 147.058 35.44 145.33 33.168C143.634 30.896 142.786 27.712 142.786 23.616C142.786 19.52 143.634 16.336 145.33 14.064C147.058 11.792 149.442 10.656 152.482 10.656C155.97 10.656 158.514 12.192 160.114 15.264H160.306V0.48H164.146V36H160.306V31.968ZM153.97 33.168C154.834 33.168 155.65 33.056 156.418 32.832C157.186 32.608 157.858 32.288 158.434 31.872C159.01 31.424 159.458 30.896 159.778 30.288C160.13 29.648 160.306 28.912 160.306 28.08V19.152C160.306 18.32 160.13 17.6 159.778 16.992C159.458 16.352 159.01 15.824 158.434 15.408C157.858 14.96 157.186 14.624 156.418 14.4C155.65 14.176 154.834 14.064 153.97 14.064C151.73 14.064 149.986 14.752 148.738 16.128C147.522 17.472 146.914 19.264 146.914 21.504V25.728C146.914 27.968 147.522 29.776 148.738 31.152C149.986 32.496 151.73 33.168 153.97 33.168ZM183.52 36.576C181.728 36.576 180.112 36.272 178.672 35.664C177.264 35.056 176.048 34.192 175.023 33.072C174.032 31.92 173.264 30.56 172.72 28.992C172.176 27.392 171.904 25.616 171.904 23.664C171.904 21.68 172.176 19.888 172.72 18.288C173.296 16.688 174.08 15.328 175.072 14.208C176.064 13.056 177.248 12.176 178.624 11.568C180.032 10.96 181.584 10.656 183.28 10.656C184.944 10.656 186.448 10.96 187.792 11.568C189.168 12.176 190.336 13.024 191.296 14.112C192.256 15.168 192.992 16.432 193.504 17.904C194.016 19.376 194.272 20.992 194.272 22.752V24.576H175.936V25.728C175.936 26.816 176.112 27.824 176.464 28.752C176.816 29.68 177.312 30.48 177.952 31.152C178.624 31.824 179.424 32.352 180.352 32.736C181.312 33.088 182.368 33.264 183.52 33.264C185.184 33.264 186.624 32.88 187.84 32.112C189.056 31.344 189.984 30.288 190.624 28.944L193.456 30.864C192.72 32.528 191.488 33.904 189.76 34.992C188.064 36.048 185.984 36.576 183.52 36.576ZM183.28 13.824C182.224 13.824 181.248 14.016 180.352 14.4C179.456 14.784 178.672 15.312 178 15.984C177.36 16.656 176.848 17.456 176.464 18.384C176.112 19.28 175.936 20.272 175.936 21.36V21.696H190.144V21.168C190.144 20.08 189.968 19.088 189.616 18.192C189.296 17.296 188.832 16.528 188.224 15.888C187.648 15.216 186.928 14.704 186.064 14.352C185.232 14 184.304 13.824 183.28 13.824ZM202.365 42.336H214.365V14.496H201.933V11.232H218.205V39.936C218.205 41.6 217.757 42.96 216.861 44.016C215.997 45.072 214.621 45.6 212.733 45.6H202.365V42.336ZM216.285 5.76C215.165 5.76 214.381 5.536 213.933 5.088C213.485 4.608 213.261 4.016 213.261 3.312V2.544C213.261 1.84 213.485 1.264 213.933 0.815998C214.381 0.335999 215.165 0.0959988 216.285 0.0959988C217.405 0.0959988 218.189 0.335999 218.637 0.815998C219.085 1.264 219.309 1.84 219.309 2.544V3.312C219.309 4.016 219.085 4.608 218.637 5.088C218.189 5.536 217.405 5.76 216.285 5.76ZM242.186 5.76C241.066 5.76 240.282 5.536 239.834 5.088C239.386 4.608 239.162 4.016 239.162 3.312V2.544C239.162 1.84 239.386 1.264 239.834 0.815998C240.282 0.335999 241.066 0.0959988 242.186 0.0959988C243.306 0.0959988 244.09 0.335999 244.538 0.815998C244.986 1.264 245.21 1.84 245.21 2.544V3.312C245.21 4.016 244.986 4.608 244.538 5.088C244.09 5.536 243.306 5.76 242.186 5.76ZM231.338 32.736H240.266V14.496H231.338V11.232H244.106V32.736H252.458V36H231.338V32.736ZM259.111 31.248L276.151 21.6V21.216L259.111 11.568V7.488L279.751 19.44V23.28L259.111 35.232V31.248Z" fill="black"/>
</svg>
